# xmcd
#
# Track frame offsets: 
#        150
#        17606
#        38463
#        58227
#        77449
#        94765
#        112286
#        145828
#        161551
#        183652
#        205291
#
# Disc length: 2792 seconds
#
# Revision: 1
# Processed by: cddbd v1.5.2PL0 Copyright (c) Steve Scherf et al.
# Submitted via: ExactAudioCopyFreeDBPlugin 1.0
#
DISCID=910ae60b
DTITLE=Slaid Cleaves - Sorrow and Smoke - Live at the Horseshoe Lounge, 
DTITLE=Disc 2
DYEAR=2011
DGENRE=Country
TTITLE0=Cry
TTITLE1=Lydia
TTITLE2=Green Mountains and Me
TTITLE3=Horses
TTITLE4=Texas Top Hand
TTITLE5=Rolling Stone from Texas
TTITLE6=Breakfast in Hell
TTITLE7=Keychain
TTITLE8=One Good Year
TTITLE9=Go for the Gold
TTITLE10=T-Bone
EXTD=
EXTT0=
EXTT1=
EXTT2=
EXTT3=
EXTT4=
EXTT5=
EXTT6=
EXTT7=
EXTT8=
EXTT9=
EXTT10=
PLAYORDER=
